<mxfile host="app.diagrams.net" agent="Mozilla/5.0 (Windows NT 10.0; Win64; x64; rv:142.0) Gecko/20100101 Firefox/142.0" version="28.2.3">
  <diagram name="Page-1" id="1dBzfhWhg8LqB8-7xUJK">
    <mxGraphModel dx="1722" dy="926" grid="1" gridSize="10" guides="1" tooltips="1" connect="1" arrows="1" fold="1" page="1" pageScale="1" pageWidth="850" pageHeight="1100" math="0" shadow="0">
      <root>
        <mxCell id="0" />
        <mxCell id="1" parent="0" />
        <mxCell id="wNXLN5aVjXn8agyz6Q4b-1" value="START" style="ellipse;whiteSpace=wrap;html=1;aspect=fixed;" parent="1" vertex="1">
          <mxGeometry x="80" y="20" width="80" height="80" as="geometry" />
        </mxCell>
        <mxCell id="wNXLN5aVjXn8agyz6Q4b-2" value="" style="endArrow=classic;html=1;rounded=0;exitX=0.5;exitY=1;exitDx=0;exitDy=0;" parent="1" source="wNXLN5aVjXn8agyz6Q4b-1" edge="1">
          <mxGeometry width="50" height="50" relative="1" as="geometry">
            <mxPoint x="90" y="170" as="sourcePoint" />
            <mxPoint x="120" y="140" as="targetPoint" />
          </mxGeometry>
        </mxCell>
        <mxCell id="wNXLN5aVjXn8agyz6Q4b-5" value="USER LOGIN" style="shape=process;whiteSpace=wrap;html=1;backgroundOutline=1;" parent="1" vertex="1">
          <mxGeometry x="60" y="140" width="120" height="60" as="geometry" />
        </mxCell>
        <mxCell id="wNXLN5aVjXn8agyz6Q4b-6" value="" style="endArrow=classic;html=1;rounded=0;exitX=0.5;exitY=1;exitDx=0;exitDy=0;" parent="1" target="wNXLN5aVjXn8agyz6Q4b-7" edge="1">
          <mxGeometry width="50" height="50" relative="1" as="geometry">
            <mxPoint x="119.5" y="200" as="sourcePoint" />
            <mxPoint x="119.5" y="240" as="targetPoint" />
          </mxGeometry>
        </mxCell>
        <mxCell id="wNXLN5aVjXn8agyz6Q4b-7" value="&lt;div&gt;LOGIN&lt;/div&gt;&lt;div&gt;SUCCESSFUL?&lt;/div&gt;" style="rhombus;whiteSpace=wrap;html=1;" parent="1" vertex="1">
          <mxGeometry x="65" y="250" width="110" height="110" as="geometry" />
        </mxCell>
        <mxCell id="wNXLN5aVjXn8agyz6Q4b-8" value="" style="curved=1;endArrow=classic;html=1;rounded=0;entryX=1;entryY=0.5;entryDx=0;entryDy=0;exitX=1;exitY=0.5;exitDx=0;exitDy=0;" parent="1" source="wNXLN5aVjXn8agyz6Q4b-7" target="wNXLN5aVjXn8agyz6Q4b-5" edge="1">
          <mxGeometry width="50" height="50" relative="1" as="geometry">
            <mxPoint x="180" y="300" as="sourcePoint" />
            <mxPoint x="225" y="250" as="targetPoint" />
            <Array as="points">
              <mxPoint x="225" y="310" />
              <mxPoint x="225" y="170" />
            </Array>
          </mxGeometry>
        </mxCell>
        <mxCell id="wNXLN5aVjXn8agyz6Q4b-11" value="PROFILE SETUP" style="shape=process;whiteSpace=wrap;html=1;backgroundOutline=1;" parent="1" vertex="1">
          <mxGeometry x="60" y="410" width="120" height="60" as="geometry" />
        </mxCell>
        <mxCell id="wNXLN5aVjXn8agyz6Q4b-12" value="" style="endArrow=classic;html=1;rounded=0;exitX=0.5;exitY=1;exitDx=0;exitDy=0;" parent="1" edge="1">
          <mxGeometry width="50" height="50" relative="1" as="geometry">
            <mxPoint x="119.66" y="360" as="sourcePoint" />
            <mxPoint x="120.16" y="410" as="targetPoint" />
          </mxGeometry>
        </mxCell>
        <mxCell id="wNXLN5aVjXn8agyz6Q4b-13" value="&lt;div&gt;TAVERN CHAT&lt;/div&gt;&lt;div&gt;OR&lt;/div&gt;&lt;div&gt;MATCH?&lt;/div&gt;" style="rhombus;whiteSpace=wrap;html=1;" parent="1" vertex="1">
          <mxGeometry x="52.5" y="520" width="135" height="130" as="geometry" />
        </mxCell>
        <mxCell id="wNXLN5aVjXn8agyz6Q4b-14" value="" style="endArrow=classic;html=1;rounded=0;exitX=0.5;exitY=1;exitDx=0;exitDy=0;" parent="1" edge="1">
          <mxGeometry width="50" height="50" relative="1" as="geometry">
            <mxPoint x="119.5" y="470" as="sourcePoint" />
            <mxPoint x="120" y="520" as="targetPoint" />
          </mxGeometry>
        </mxCell>
        <mxCell id="wNXLN5aVjXn8agyz6Q4b-16" value="" style="endArrow=classic;html=1;rounded=0;" parent="1" target="wNXLN5aVjXn8agyz6Q4b-17" edge="1">
          <mxGeometry width="50" height="50" relative="1" as="geometry">
            <mxPoint x="120" y="650" as="sourcePoint" />
            <mxPoint x="120" y="700" as="targetPoint" />
          </mxGeometry>
        </mxCell>
        <mxCell id="wNXLN5aVjXn8agyz6Q4b-43" style="edgeStyle=orthogonalEdgeStyle;rounded=0;orthogonalLoop=1;jettySize=auto;html=1;exitX=1;exitY=0.5;exitDx=0;exitDy=0;entryX=0;entryY=0.5;entryDx=0;entryDy=0;" parent="1" source="wNXLN5aVjXn8agyz6Q4b-17" target="wNXLN5aVjXn8agyz6Q4b-41" edge="1">
          <mxGeometry relative="1" as="geometry" />
        </mxCell>
        <mxCell id="wNXLN5aVjXn8agyz6Q4b-17" value="&lt;div&gt;PUBLIC TAVERN BRAWL&lt;/div&gt;&lt;div&gt;CHATROOM&lt;/div&gt;" style="shape=process;whiteSpace=wrap;html=1;backgroundOutline=1;" parent="1" vertex="1">
          <mxGeometry x="40" y="710" width="160" height="60" as="geometry" />
        </mxCell>
        <mxCell id="wNXLN5aVjXn8agyz6Q4b-19" value="" style="curved=1;endArrow=classic;html=1;rounded=0;" parent="1" edge="1">
          <mxGeometry width="50" height="50" relative="1" as="geometry">
            <mxPoint x="187.5" y="590" as="sourcePoint" />
            <mxPoint x="320" y="80" as="targetPoint" />
            <Array as="points">
              <mxPoint x="240" y="590" />
              <mxPoint x="260" y="590" />
              <mxPoint x="260" y="440" />
              <mxPoint x="260" y="290" />
              <mxPoint x="250" y="180" />
              <mxPoint x="250" y="70" />
            </Array>
          </mxGeometry>
        </mxCell>
        <mxCell id="wNXLN5aVjXn8agyz6Q4b-20" value="SEEK MATCH" style="text;html=1;align=center;verticalAlign=middle;whiteSpace=wrap;rounded=0;" parent="1" vertex="1">
          <mxGeometry x="160" y="590" width="120" height="30" as="geometry" />
        </mxCell>
        <mxCell id="wNXLN5aVjXn8agyz6Q4b-22" value="TAVERN&amp;nbsp; &amp;nbsp; CHAT&amp;nbsp;&amp;nbsp;" style="text;html=1;align=center;verticalAlign=middle;whiteSpace=wrap;rounded=0;" parent="1" vertex="1">
          <mxGeometry x="20" y="650" width="190" height="30" as="geometry" />
        </mxCell>
        <mxCell id="wNXLN5aVjXn8agyz6Q4b-23" value="NO" style="text;html=1;align=center;verticalAlign=middle;whiteSpace=wrap;rounded=0;" parent="1" vertex="1">
          <mxGeometry x="160" y="280" width="60" height="30" as="geometry" />
        </mxCell>
        <mxCell id="wNXLN5aVjXn8agyz6Q4b-25" value="YES" style="text;html=1;align=center;verticalAlign=middle;whiteSpace=wrap;rounded=0;" parent="1" vertex="1">
          <mxGeometry x="110" y="370" width="60" height="30" as="geometry" />
        </mxCell>
        <mxCell id="wNXLN5aVjXn8agyz6Q4b-29" value="MATCH QUEUE" style="shape=process;whiteSpace=wrap;html=1;backgroundOutline=1;" parent="1" vertex="1">
          <mxGeometry x="320" y="50" width="190" height="60" as="geometry" />
        </mxCell>
        <mxCell id="wNXLN5aVjXn8agyz6Q4b-30" value="" style="endArrow=classic;html=1;rounded=0;exitX=0.5;exitY=1;exitDx=0;exitDy=0;" parent="1" source="wNXLN5aVjXn8agyz6Q4b-29" target="wNXLN5aVjXn8agyz6Q4b-31" edge="1">
          <mxGeometry width="50" height="50" relative="1" as="geometry">
            <mxPoint x="425" y="240" as="sourcePoint" />
            <mxPoint x="415" y="200" as="targetPoint" />
          </mxGeometry>
        </mxCell>
        <mxCell id="wNXLN5aVjXn8agyz6Q4b-31" value="&lt;div&gt;LIKE OR&lt;/div&gt;&lt;div&gt;DISLIKE?&lt;/div&gt;" style="rhombus;whiteSpace=wrap;html=1;" parent="1" vertex="1">
          <mxGeometry x="352.5" y="160" width="125" height="120" as="geometry" />
        </mxCell>
        <mxCell id="wNXLN5aVjXn8agyz6Q4b-32" value="" style="curved=1;endArrow=classic;html=1;rounded=0;entryX=1;entryY=0.5;entryDx=0;entryDy=0;" parent="1" target="wNXLN5aVjXn8agyz6Q4b-29" edge="1">
          <mxGeometry width="50" height="50" relative="1" as="geometry">
            <mxPoint x="477.5" y="220" as="sourcePoint" />
            <mxPoint x="527.5" y="170" as="targetPoint" />
            <Array as="points">
              <mxPoint x="530" y="220" />
              <mxPoint x="550" y="220" />
              <mxPoint x="550" y="160" />
              <mxPoint x="550" y="80" />
              <mxPoint x="540" y="80" />
            </Array>
          </mxGeometry>
        </mxCell>
        <mxCell id="wNXLN5aVjXn8agyz6Q4b-33" value="DISLIKE" style="text;html=1;align=center;verticalAlign=middle;whiteSpace=wrap;rounded=0;" parent="1" vertex="1">
          <mxGeometry x="425" y="190" width="150" height="30" as="geometry" />
        </mxCell>
        <mxCell id="wNXLN5aVjXn8agyz6Q4b-34" value="" style="endArrow=classic;html=1;rounded=0;exitX=0.5;exitY=1;exitDx=0;exitDy=0;" parent="1" edge="1">
          <mxGeometry width="50" height="50" relative="1" as="geometry">
            <mxPoint x="414.5" y="280" as="sourcePoint" />
            <mxPoint x="414.5" y="330" as="targetPoint" />
          </mxGeometry>
        </mxCell>
        <mxCell id="wNXLN5aVjXn8agyz6Q4b-36" value="MUTUAL LIKE?" style="rhombus;whiteSpace=wrap;html=1;" parent="1" vertex="1">
          <mxGeometry x="352.5" y="325" width="125" height="120" as="geometry" />
        </mxCell>
        <mxCell id="wNXLN5aVjXn8agyz6Q4b-37" value="" style="curved=1;endArrow=classic;html=1;rounded=0;exitX=1;exitY=0.5;exitDx=0;exitDy=0;" parent="1" source="wNXLN5aVjXn8agyz6Q4b-36" edge="1">
          <mxGeometry width="50" height="50" relative="1" as="geometry">
            <mxPoint x="490" y="385" as="sourcePoint" />
            <mxPoint x="550" y="180" as="targetPoint" />
            <Array as="points">
              <mxPoint x="520" y="385" />
              <mxPoint x="550" y="385" />
              <mxPoint x="550" y="370" />
              <mxPoint x="550.5" y="340" />
            </Array>
          </mxGeometry>
        </mxCell>
        <mxCell id="wNXLN5aVjXn8agyz6Q4b-38" value="" style="endArrow=classic;html=1;rounded=0;exitX=0.5;exitY=1;exitDx=0;exitDy=0;" parent="1" source="wNXLN5aVjXn8agyz6Q4b-36" edge="1">
          <mxGeometry width="50" height="50" relative="1" as="geometry">
            <mxPoint x="290" y="390" as="sourcePoint" />
            <mxPoint x="415" y="490" as="targetPoint" />
          </mxGeometry>
        </mxCell>
        <mxCell id="wNXLN5aVjXn8agyz6Q4b-42" style="edgeStyle=orthogonalEdgeStyle;rounded=0;orthogonalLoop=1;jettySize=auto;html=1;exitX=0.5;exitY=1;exitDx=0;exitDy=0;entryX=0.5;entryY=0;entryDx=0;entryDy=0;" parent="1" source="wNXLN5aVjXn8agyz6Q4b-39" target="wNXLN5aVjXn8agyz6Q4b-41" edge="1">
          <mxGeometry relative="1" as="geometry" />
        </mxCell>
        <mxCell id="wNXLN5aVjXn8agyz6Q4b-39" value="MATCHED DM&#39;s" style="shape=process;whiteSpace=wrap;html=1;backgroundOutline=1;" parent="1" vertex="1">
          <mxGeometry x="341.25" y="490" width="147.5" height="60" as="geometry" />
        </mxCell>
        <mxCell id="wNXLN5aVjXn8agyz6Q4b-41" value="END" style="ellipse;whiteSpace=wrap;html=1;aspect=fixed;" parent="1" vertex="1">
          <mxGeometry x="375" y="700" width="80" height="80" as="geometry" />
        </mxCell>
      </root>
    </mxGraphModel>
  </diagram>
</mxfile>
